<svg width="50" height="49" viewBox="0 0 50 49" fill="none" xmlns="http://www.w3.org/2000/svg">
<rect x="1" y="1" width="48" height="47" rx="23.5" stroke="#F4F3F3" stroke-width="2"/>
<path d="M24.003 36.1906V24.0469C24.003 23.775 23.8218 23.5938 23.5499 23.5938H20.6499C20.378 23.5938 20.1968 23.775 20.1968 24.0469V36.2812H21.1937V24.5H23.1874V36.1906H24.003Z" fill="#3B82F6"/>
<path d="M29.8937 36.1906V25.95C29.8937 25.6781 29.7124 25.4969 29.4405 25.4969H26.5405C26.2687 25.4969 26.0874 25.6781 26.0874 25.95V36.1906H27.0843V26.4938H29.078V36.2813H29.8937V36.1906Z" fill="#3B82F6"/>
<path d="M18.203 36.1906V29.8469C18.203 29.575 18.0218 29.3937 17.7499 29.3937H14.7593C14.4874 29.3937 14.3062 29.575 14.3062 29.8469V36.1906H15.303V30.3H17.2968V36.1906H18.203Z" fill="#3B82F6"/>
<path d="M21.8281 18.2469L26.6312 20.6938L34.0625 14.9844L33.4281 14.1688L26.45 19.5156L21.7375 17.0688L14.2156 21.6L14.7593 22.4156L15.2125 22.1438L21.8281 18.2469Z" fill="#3B82F6"/>
<path d="M34.425 14.0781L33.7906 17.975L32.7938 17.7938L33.2469 14.8938L30.4375 14.4406L30.6188 13.4438L34.425 14.0781Z" fill="#3B82F6"/>
<path d="M35.6937 36.1906V21.0562C35.6937 20.7844 35.5125 20.6031 35.2406 20.6031H32.3406C32.0687 20.6031 31.8875 20.7844 31.8875 21.0562V36.1906H32.8843V21.6H34.8781V36.1906H35.6937Z" fill="#3B82F6"/>
<path d="M13.3093 35.1938H36.6906V36.1906H13.3093V35.1938Z" fill="#3B82F6"/>
</svg>
