<svg width="50" height="51" viewBox="0 0 50 51" fill="none" xmlns="http://www.w3.org/2000/svg">
<rect x="1" y="1.80005" width="48" height="47.9" rx="23.95" stroke="#F4F3F3" stroke-width="2"/>
<path d="M36.4896 15.464L35.2888 14.2633C35.2435 14.2179 35.1869 14.1981 35.1274 14.1981C35.0679 14.1981 35.0113 14.2208 34.966 14.2633L32.8108 16.4184C31.8739 15.7836 30.7678 15.4452 29.6361 15.447C28.1861 15.447 26.7361 15.9993 25.6288 17.1066L22.7429 19.9925C22.7008 20.035 22.6771 20.0925 22.6771 20.1525C22.6771 20.2124 22.7008 20.2699 22.7429 20.3125L30.4375 28.0071C30.4829 28.0524 30.5395 28.0722 30.599 28.0722C30.6556 28.0722 30.7151 28.0496 30.7604 28.0071L33.6462 25.1213C35.5975 23.1672 35.8269 20.1454 34.3344 17.9421L36.4896 15.7869C36.5774 15.6963 36.5774 15.5518 36.4896 15.464ZM32.2812 23.7591L30.599 25.4413L25.3087 20.151L26.991 18.4688C27.6961 17.7636 28.6364 17.3728 29.6361 17.3728C30.6358 17.3728 31.5732 17.7608 32.2812 18.4688C32.9864 19.174 33.3772 20.1142 33.3772 21.1139C33.3772 22.1136 32.9864 23.0511 32.2812 23.7591ZM26.8947 26.7327C26.8521 26.6905 26.7946 26.6669 26.7347 26.6669C26.6747 26.6669 26.6172 26.6905 26.5747 26.7327L24.6885 28.6188L22.1312 26.0615L24.0202 24.1725C24.108 24.0847 24.108 23.9403 24.0202 23.8525L22.9893 22.8217C22.9467 22.7795 22.8892 22.7558 22.8293 22.7558C22.7694 22.7558 22.7119 22.7795 22.6693 22.8217L20.7803 24.7106L19.5625 23.4928C19.5414 23.4717 19.5162 23.455 19.4885 23.4438C19.4607 23.4326 19.431 23.4271 19.4011 23.4277C19.3445 23.4277 19.285 23.4504 19.2397 23.4928L16.3567 26.3787C14.4054 28.3328 14.176 31.3546 15.6685 33.5579L13.5133 35.7131C13.4712 35.7556 13.4475 35.8131 13.4475 35.8731C13.4475 35.933 13.4712 35.9905 13.5133 36.0331L14.7141 37.2339C14.7594 37.2792 14.8161 37.299 14.8755 37.299C14.935 37.299 14.9916 37.2763 15.037 37.2339L17.1921 35.0787C18.1465 35.7272 19.2567 36.0501 20.3668 36.0501C21.8168 36.0501 23.2668 35.4978 24.3742 34.3905L27.26 31.5047C27.3478 31.4169 27.3478 31.2724 27.26 31.1846L26.0422 29.9669L27.9312 28.0779C28.019 27.9901 28.019 27.8457 27.9312 27.7579L26.8947 26.7327ZM23.0091 33.0311C22.6625 33.3795 22.2503 33.6558 21.7963 33.8439C21.3423 34.032 20.8555 34.1283 20.364 34.1271C19.3643 34.1271 18.4269 33.7391 17.7189 33.0311C17.3705 32.6845 17.0943 32.2723 16.9061 31.8183C16.718 31.3643 16.6218 30.8775 16.6229 30.386C16.6229 29.3863 17.0109 28.4489 17.7189 27.7409L19.4011 26.0587L24.6914 31.3489L23.0091 33.0311Z" fill="#3B82F6"/>
</svg>
