<svg width="50" height="51" viewBox="0 0 50 51" fill="none" xmlns="http://www.w3.org/2000/svg">
<rect x="1" y="1.79999" width="48" height="47.9" rx="23.95" stroke="#F4F3F3" stroke-width="2"/>
<path d="M36.0265 24.0769C35.3174 23.3803 34.4407 22.8782 33.481 22.619C33.8652 22.1027 34.1375 21.512 34.2805 20.8846C34.4235 20.2571 34.4341 19.6068 34.3116 18.975C34.189 18.3432 33.9361 17.744 33.5689 17.2155C33.2017 16.687 32.7284 16.2409 32.1791 15.9056C31.6298 15.5704 31.0166 15.3534 30.3787 15.2685C29.7408 15.1836 29.0922 15.2326 28.4743 15.4126C27.8564 15.5925 27.2828 15.8992 26.7902 16.3133C26.2976 16.7274 25.8967 17.2396 25.6132 17.8173C25.4101 17.7866 25.2053 17.7673 25 17.7595C24.7958 17.7481 24.591 17.7481 24.3868 17.7595C24.0819 17.2143 23.6697 16.7365 23.1752 16.3549C22.6807 15.9733 22.1141 15.6957 21.5095 15.5389C20.9048 15.382 20.2747 15.3492 19.657 15.4424C19.0394 15.5356 18.447 15.7529 17.9155 16.0812C17.3841 16.4094 16.9246 16.8418 16.5647 17.3524C16.2049 17.863 15.9521 18.4411 15.8216 19.052C15.6911 19.6628 15.6856 20.2938 15.8055 20.9068C15.9253 21.5198 16.168 22.1023 16.519 22.619C15.5556 22.8836 14.6756 23.3893 13.962 24.0884C12.8805 25.1726 12.273 26.6414 12.2727 28.1727C12.2727 29.0933 12.6384 29.9762 13.2894 30.6272C13.9403 31.2781 14.8232 31.6438 15.7438 31.6438H16.9818C16.9314 32.0275 16.9044 32.4139 16.9008 32.8009C16.9008 33.7215 17.2665 34.6043 17.9175 35.2553C18.5684 35.9062 19.4513 36.2719 20.3719 36.2719H29.6281C30.5487 36.2719 31.4316 35.9062 32.0826 35.2553C32.7335 34.6043 33.0992 33.7215 33.0992 32.8009C33.0957 32.4139 33.0686 32.0275 33.0182 31.6438H34.2562C35.1768 31.6438 36.0597 31.2781 36.7107 30.6272C37.3616 29.9762 37.7273 29.0933 37.7273 28.1727C37.7272 27.4117 37.5769 26.6582 37.285 25.9554C36.9931 25.2525 36.5655 24.6142 36.0265 24.0769ZM29.6281 17.7595C30.2419 17.7595 30.8304 18.0033 31.2644 18.4373C31.6984 18.8712 31.9422 19.4598 31.9422 20.0736C31.9422 20.6873 31.6984 21.2759 31.2644 21.7098C30.8304 22.1438 30.2419 22.3876 29.6281 22.3876C29.6246 21.673 29.4556 20.969 29.1344 20.3306C28.8132 19.6923 28.3486 19.137 27.7769 18.7083C27.99 18.4166 28.2684 18.1789 28.5899 18.0141C28.9114 17.8494 29.2669 17.7622 29.6281 17.7595ZM27.3141 22.3876C27.3141 22.8453 27.1784 23.2927 26.9241 23.6732C26.6698 24.0538 26.3084 24.3504 25.8856 24.5255C25.4627 24.7007 24.9975 24.7465 24.5486 24.6572C24.0997 24.5679 23.6874 24.3475 23.3637 24.0239C23.0401 23.7003 22.8197 23.2879 22.7304 22.8391C22.6411 22.3902 22.687 21.9249 22.8621 21.5021C23.0373 21.0792 23.3339 20.7178 23.7144 20.4635C24.0949 20.2093 24.5423 20.0736 25 20.0736C25.6137 20.0736 26.2023 20.3174 26.6363 20.7513C27.0703 21.1853 27.3141 21.7739 27.3141 22.3876ZM20.3719 17.7595C20.7331 17.7622 21.0887 17.8494 21.4101 18.0141C21.7316 18.1789 22.01 18.4166 22.2232 18.7083C21.6515 19.137 21.1868 19.6923 20.8657 20.3306C20.5445 20.969 20.3755 21.673 20.3719 22.3876C19.7582 22.3876 19.1696 22.1438 18.7356 21.7098C18.3016 21.2759 18.0578 20.6873 18.0578 20.0736C18.0578 19.4598 18.3016 18.8712 18.7356 18.4373C19.1696 18.0033 19.7582 17.7595 20.3719 17.7595ZM15.7438 29.3298C15.4369 29.3298 15.1426 29.2079 14.9256 28.9909C14.7087 28.7739 14.5868 28.4796 14.5868 28.1727C14.5868 27.2522 14.9525 26.3693 15.6034 25.7183C16.2544 25.0674 17.1373 24.7017 18.0578 24.7017H21.0198C21.1811 24.9764 21.367 25.2358 21.5752 25.4769C19.8743 26.2751 18.501 27.6361 17.6876 29.3298H15.7438ZM20.3719 33.9579C20.065 33.9579 19.7707 33.836 19.5538 33.619C19.3368 33.402 19.2149 33.1077 19.2149 32.8009C19.2149 31.2665 19.8244 29.7951 20.9093 28.7101C21.9942 27.6252 23.4657 27.0157 25 27.0157C26.5343 27.0157 28.0058 27.6252 29.0907 28.7101C30.1757 29.7951 30.7852 31.2665 30.7852 32.8009C30.7852 33.1077 30.6633 33.402 30.4463 33.619C30.2293 33.836 29.935 33.9579 29.6281 33.9579H20.3719ZM34.2562 29.3298H32.3124C31.5107 27.6437 30.1547 26.2837 28.4711 25.4769C28.6793 25.2358 28.8652 24.9764 29.0265 24.7017H31.9422C32.8628 24.7017 33.7457 25.0674 34.3966 25.7183C35.0476 26.3693 35.4133 27.2522 35.4133 28.1727C35.4133 28.4796 35.2914 28.7739 35.0744 28.9909C34.8574 29.2079 34.5631 29.3298 34.2562 29.3298Z" fill="#3B82F6"/>
<path d="M36.0265 24.0769C35.3174 23.3803 34.4407 22.8782 33.481 22.619C33.8652 22.1027 34.1375 21.512 34.2805 20.8846C34.4235 20.2571 34.4341 19.6068 34.3116 18.975C34.189 18.3432 33.9361 17.744 33.5689 17.2155C33.2017 16.687 32.7284 16.2409 32.1791 15.9056C31.6298 15.5704 31.0166 15.3534 30.3787 15.2685C29.7408 15.1836 29.0922 15.2326 28.4743 15.4126C27.8564 15.5925 27.2828 15.8992 26.7902 16.3133C26.2976 16.7274 25.8967 17.2396 25.6132 17.8173C25.4101 17.7866 25.2053 17.7673 25 17.7595C24.7958 17.7481 24.591 17.7481 24.3868 17.7595C24.0819 17.2143 23.6697 16.7365 23.1752 16.3549C22.6807 15.9733 22.1141 15.6957 21.5095 15.5389C20.9048 15.382 20.2747 15.3492 19.657 15.4424C19.0394 15.5356 18.447 15.7529 17.9155 16.0812C17.3841 16.4094 16.9246 16.8418 16.5647 17.3524C16.2049 17.863 15.9521 18.4411 15.8216 19.052C15.6911 19.6628 15.6856 20.2938 15.8055 20.9068C15.9253 21.5198 16.168 22.1023 16.519 22.619C15.5556 22.8836 14.6756 23.3893 13.962 24.0884C12.8805 25.1726 12.273 26.6414 12.2727 28.1727C12.2727 29.0933 12.6384 29.9762 13.2894 30.6272C13.9403 31.2781 14.8232 31.6438 15.7438 31.6438H16.9818C16.9314 32.0275 16.9044 32.4139 16.9008 32.8009C16.9008 33.7215 17.2665 34.6043 17.9175 35.2553C18.5684 35.9062 19.4513 36.2719 20.3719 36.2719H29.6281C30.5487 36.2719 31.4316 35.9062 32.0826 35.2553C32.7335 34.6043 33.0992 33.7215 33.0992 32.8009C33.0957 32.4139 33.0686 32.0275 33.0182 31.6438H34.2562C35.1768 31.6438 36.0597 31.2781 36.7107 30.6272C37.3616 29.9762 37.7273 29.0933 37.7273 28.1727C37.7272 27.4117 37.5769 26.6582 37.285 25.9554C36.9931 25.2525 36.5655 24.6142 36.0265 24.0769ZM29.6281 17.7595C30.2419 17.7595 30.8304 18.0033 31.2644 18.4373C31.6984 18.8712 31.9422 19.4598 31.9422 20.0736C31.9422 20.6873 31.6984 21.2759 31.2644 21.7098C30.8304 22.1438 30.2419 22.3876 29.6281 22.3876C29.6246 21.673 29.4556 20.969 29.1344 20.3306C28.8132 19.6923 28.3486 19.137 27.7769 18.7083C27.99 18.4166 28.2684 18.1789 28.5899 18.0141C28.9114 17.8494 29.2669 17.7622 29.6281 17.7595ZM27.3141 22.3876C27.3141 22.8453 27.1784 23.2927 26.9241 23.6732C26.6698 24.0538 26.3084 24.3504 25.8856 24.5255C25.4627 24.7007 24.9975 24.7465 24.5486 24.6572C24.0997 24.5679 23.6874 24.3475 23.3637 24.0239C23.0401 23.7003 22.8197 23.2879 22.7304 22.8391C22.6411 22.3902 22.687 21.9249 22.8621 21.5021C23.0373 21.0792 23.3339 20.7178 23.7144 20.4635C24.0949 20.2093 24.5423 20.0736 25 20.0736C25.6137 20.0736 26.2023 20.3174 26.6363 20.7513C27.0703 21.1853 27.3141 21.7739 27.3141 22.3876ZM20.3719 17.7595C20.7331 17.7622 21.0887 17.8494 21.4101 18.0141C21.7316 18.1789 22.01 18.4166 22.2232 18.7083C21.6515 19.137 21.1868 19.6923 20.8657 20.3306C20.5445 20.969 20.3755 21.673 20.3719 22.3876C19.7582 22.3876 19.1696 22.1438 18.7356 21.7098C18.3016 21.2759 18.0578 20.6873 18.0578 20.0736C18.0578 19.4598 18.3016 18.8712 18.7356 18.4373C19.1696 18.0033 19.7582 17.7595 20.3719 17.7595ZM15.7438 29.3298C15.4369 29.3298 15.1426 29.2079 14.9256 28.9909C14.7087 28.7739 14.5868 28.4796 14.5868 28.1727C14.5868 27.2522 14.9525 26.3693 15.6034 25.7183C16.2544 25.0674 17.1373 24.7017 18.0578 24.7017H21.0198C21.1811 24.9764 21.367 25.2358 21.5752 25.4769C19.8743 26.2751 18.501 27.6361 17.6876 29.3298H15.7438ZM20.3719 33.9579C20.065 33.9579 19.7707 33.836 19.5538 33.619C19.3368 33.402 19.2149 33.1077 19.2149 32.8009C19.2149 31.2665 19.8244 29.7951 20.9093 28.7101C21.9942 27.6252 23.4657 27.0157 25 27.0157C26.5343 27.0157 28.0058 27.6252 29.0907 28.7101C30.1757 29.7951 30.7852 31.2665 30.7852 32.8009C30.7852 33.1077 30.6633 33.402 30.4463 33.619C30.2293 33.836 29.935 33.9579 29.6281 33.9579H20.3719ZM34.2562 29.3298H32.3124C31.5107 27.6437 30.1547 26.2837 28.4711 25.4769C28.6793 25.2358 28.8652 24.9764 29.0265 24.7017H31.9422C32.8628 24.7017 33.7457 25.0674 34.3966 25.7183C35.0476 26.3693 35.4133 27.2522 35.4133 28.1727C35.4133 28.4796 35.2914 28.7739 35.0744 28.9909C34.8574 29.2079 34.5631 29.3298 34.2562 29.3298Z" stroke="black"/>
</svg>
