<svg width="50" height="50" viewBox="0 0 50 50" fill="none" xmlns="http://www.w3.org/2000/svg">
<rect x="1" y="1" width="48" height="47.9" rx="23.95" stroke="#F4F3F3" stroke-width="2"/>
<path d="M25 24.95C25.9951 24.95 26.9678 24.6549 27.7952 24.1021C28.6226 23.5493 29.2675 22.7635 29.6483 21.8441C30.0291 20.9248 30.1287 19.9132 29.9346 18.9372C29.7404 17.9612 29.2613 17.0648 28.5576 16.3611C27.854 15.6575 26.9575 15.1783 25.9815 14.9842C25.0056 14.7901 23.994 14.8897 23.0746 15.2705C22.1553 15.6513 21.3695 16.2962 20.8167 17.1236C20.2638 17.9509 19.9688 18.9237 19.9688 19.9188C19.9688 21.2531 20.4988 22.5329 21.4424 23.4764C22.3859 24.4199 23.6656 24.95 25 24.95ZM25 16.325C25.7108 16.325 26.4056 16.5358 26.9966 16.9307C27.5876 17.3256 28.0482 17.8868 28.3202 18.5435C28.5922 19.2002 28.6634 19.9228 28.5247 20.6199C28.386 21.317 28.0438 21.9573 27.5412 22.4599C27.0386 22.9625 26.3982 23.3048 25.7011 23.4435C25.004 23.5821 24.2814 23.511 23.6247 23.239C22.9681 22.967 22.4068 22.5063 22.0119 21.9153C21.617 21.3244 21.4062 20.6295 21.4062 19.9188C21.4062 18.9656 21.7849 18.0516 22.4588 17.3776C23.1328 16.7036 24.0469 16.325 25 16.325Z" fill="#3B82F6"/>
<path d="M25.7188 26.3875H24.2812C22.1844 26.3875 20.1734 27.2205 18.6907 28.7032C17.208 30.1859 16.375 32.1969 16.375 34.2938C16.375 34.4844 16.4507 34.6672 16.5855 34.802C16.7203 34.9368 16.9031 35.0125 17.0938 35.0125H32.9062C33.0969 35.0125 33.2797 34.9368 33.4145 34.802C33.5493 34.6672 33.625 34.4844 33.625 34.2938C33.625 32.1969 32.792 30.1859 31.3093 28.7032C29.8266 27.2205 27.8156 26.3875 25.7188 26.3875ZM17.8556 33.575C18.0324 31.9942 18.7853 30.534 19.9707 29.4733C21.156 28.4126 22.6906 27.8258 24.2812 27.825H25.7188C27.3094 27.8258 28.844 28.4126 30.0293 29.4733C31.2147 30.534 31.9676 31.9942 32.1444 33.575H17.8556Z" fill="#3B82F6"/>
</svg>
