<svg width="42" height="40" viewBox="0 0 42 40" fill="none" xmlns="http://www.w3.org/2000/svg">
<rect x="0.5" width="41" height="40" rx="20" fill="#3B82F6"/>
<path d="M33.652 18.2492C33.4934 17.98 33.1758 17.8467 32.7184 17.8467H23.8377L28.2503 9.81956C28.4425 9.47192 28.2757 9.20792 27.8476 9.01188C27.4694 8.83937 26.9159 8.87858 26.6026 9.08507L8.56631 20.9834C8.25302 21.1899 8.17881 21.4486 8.34678 21.7414C8.50852 22.0237 8.82298 22.1596 9.28037 22.1596H18.1611L13.7484 30.1972C13.5566 30.5448 13.7199 30.801 14.1512 30.9918C14.4344 31.1199 15.0075 31.1748 15.4328 30.8951L33.4324 18.9968C33.7453 18.7903 33.8231 18.542 33.652 18.2492ZM17.2274 27.8082L20.5599 21.7179C20.6873 21.4852 20.6513 21.2631 20.4502 21.0801C20.2486 20.8971 19.974 20.8109 19.6259 20.8109H11.7523L24.7713 12.1982L21.4204 18.2989C21.3044 18.5107 21.3556 18.7119 21.5486 18.9001C21.7588 19.104 22.0248 19.2059 22.3729 19.2059H30.2465L17.2274 27.8082Z" fill="white"/>
</svg>
