<svg width="201" height="60" viewBox="0 0 201 60" fill="none" xmlns="http://www.w3.org/2000/svg">
<path d="M43.9051 28.613L32.225 23.7118C31.8536 23.5559 31.6119 23.1925 31.6119 22.7897V21M43.9051 28.613V21M43.9051 28.613L54 24.2727M43.9051 21L54 16.9091M43.9051 21L31.6119 16.0909M54 16.9091V24.2727M54 16.9091L44.2716 12.1782C44.0366 12.064 43.7663 12.0462 43.5185 12.1287L31.6119 16.0909M54 24.2727L38.7761 30.8182M54 24.2727V40.4029C54 40.7943 53.7716 41.1498 53.4155 41.3125L38.7761 48M31.6119 16.0909V21M31.6119 21L24 24.2727M24 24.2727V40.4109C24 40.7982 24.2237 41.1507 24.5741 41.3157L38.7761 48M24 24.2727L38.7761 30.8182M38.7761 48V30.8182" stroke="#3B82F6" stroke-width="2" stroke-linecap="round"/>
<path d="M68.392 38.5H65.5966L71.8778 21.0455H74.9205L81.2017 38.5H78.4062L73.4716 24.2159H73.3352L68.392 38.5ZM68.8608 31.6648H77.929V33.8807H68.8608V31.6648ZM85.1061 30.7273V38.5H82.5578V25.4091H85.0038V27.5398H85.1657C85.4668 26.8466 85.9384 26.2898 86.5805 25.8693C87.2282 25.4489 88.0436 25.2386 89.0265 25.2386C89.9186 25.2386 90.6998 25.4261 91.3703 25.8011C92.0407 26.1705 92.5606 26.7216 92.9299 27.4545C93.2992 28.1875 93.4839 29.0937 93.4839 30.1733V38.5H90.9356V30.4801C90.9356 29.5312 90.6884 28.7898 90.1941 28.2557C89.6998 27.7159 89.0208 27.446 88.1572 27.446C87.5663 27.446 87.0407 27.5739 86.5805 27.8295C86.1259 28.0852 85.7651 28.4602 85.4981 28.9545C85.2367 29.4432 85.1061 30.0341 85.1061 30.7273ZM102.052 25.4091V27.4545H94.9017V25.4091H102.052ZM96.8193 22.2727H99.3676V34.6562C99.3676 35.1506 99.4415 35.5227 99.5892 35.7727C99.737 36.017 99.9273 36.1847 100.16 36.2756C100.399 36.3608 100.657 36.4034 100.936 36.4034C101.14 36.4034 101.319 36.3892 101.473 36.3608C101.626 36.3324 101.745 36.3097 101.831 36.2926L102.291 38.3977C102.143 38.4545 101.933 38.5114 101.66 38.5682C101.388 38.6307 101.047 38.6648 100.638 38.6705C99.9671 38.6818 99.3421 38.5625 98.7625 38.3125C98.183 38.0625 97.7142 37.6761 97.3563 37.1534C96.9983 36.6307 96.8193 35.9744 96.8193 35.1847V22.2727ZM104.397 38.5V21.0455H110.789C112.028 21.0455 113.053 21.25 113.866 21.6591C114.678 22.0625 115.286 22.6108 115.69 23.304C116.093 23.9915 116.295 24.767 116.295 25.6307C116.295 26.358 116.161 26.9716 115.894 27.4716C115.627 27.9659 115.269 28.3636 114.82 28.6648C114.377 28.9602 113.888 29.1761 113.354 29.3125V29.483C113.934 29.5114 114.499 29.6989 115.05 30.0455C115.607 30.3864 116.067 30.8722 116.431 31.5028C116.795 32.1335 116.977 32.9006 116.977 33.804C116.977 34.696 116.766 35.4972 116.346 36.2074C115.931 36.9119 115.289 37.4716 114.42 37.8864C113.55 38.2955 112.44 38.5 111.087 38.5H104.397ZM107.031 36.2415H110.832C112.093 36.2415 112.996 35.9972 113.542 35.5085C114.087 35.0199 114.36 34.4091 114.36 33.6761C114.36 33.125 114.221 32.6193 113.942 32.1591C113.664 31.6989 113.266 31.3324 112.749 31.0597C112.238 30.7869 111.63 30.6506 110.925 30.6506H107.031V36.2415ZM107.031 28.5966H110.559C111.15 28.5966 111.681 28.483 112.153 28.2557C112.63 28.0284 113.008 27.7102 113.286 27.3011C113.57 26.8864 113.712 26.3977 113.712 25.8352C113.712 25.1136 113.459 24.5085 112.954 24.0199C112.448 23.5312 111.673 23.2869 110.627 23.2869H107.031V28.5966ZM127.228 33.071V25.4091H129.785V38.5H127.279V36.233H127.143C126.842 36.9318 126.359 37.5142 125.694 37.9801C125.035 38.4403 124.214 38.6705 123.231 38.6705C122.39 38.6705 121.646 38.4858 120.998 38.1165C120.356 37.7415 119.85 37.1875 119.481 36.4545C119.117 35.7216 118.936 34.8153 118.936 33.7358V25.4091H121.484V33.429C121.484 34.321 121.731 35.0312 122.225 35.5597C122.72 36.0881 123.362 36.3523 124.151 36.3523C124.629 36.3523 125.103 36.233 125.575 35.9943C126.052 35.7557 126.447 35.3949 126.759 34.9119C127.078 34.429 127.234 33.8153 127.228 33.071ZM132.249 38.5V25.4091H134.797V38.5H132.249ZM133.536 23.3892C133.093 23.3892 132.712 23.2415 132.394 22.946C132.081 22.6449 131.925 22.2869 131.925 21.8722C131.925 21.4517 132.081 21.0937 132.394 20.7983C132.712 20.4972 133.093 20.3466 133.536 20.3466C133.979 20.3466 134.357 20.4972 134.669 20.7983C134.988 21.0937 135.147 21.4517 135.147 21.8722C135.147 22.2869 134.988 22.6449 134.669 22.946C134.357 23.2415 133.979 23.3892 133.536 23.3892ZM139.814 21.0455V38.5H137.266V21.0455H139.814ZM147.183 38.7557C146.126 38.7557 145.183 38.4858 144.353 37.946C143.529 37.4006 142.882 36.625 142.41 35.6193C141.944 34.608 141.711 33.3949 141.711 31.9801C141.711 30.5653 141.947 29.3551 142.418 28.3494C142.896 27.3437 143.549 26.5739 144.379 26.0398C145.208 25.5057 146.149 25.2386 147.2 25.2386C148.012 25.2386 148.666 25.375 149.16 25.6477C149.66 25.9148 150.046 26.2273 150.319 26.5852C150.597 26.9432 150.813 27.2585 150.967 27.5312H151.12V21.0455H153.668V38.5H151.18V36.4631H150.967C150.813 36.7415 150.592 37.0597 150.302 37.4176C150.018 37.7756 149.626 38.0881 149.126 38.3551C148.626 38.6222 147.978 38.7557 147.183 38.7557ZM147.745 36.5824C148.478 36.5824 149.097 36.3892 149.603 36.0028C150.115 35.6108 150.501 35.0682 150.762 34.375C151.029 33.6818 151.163 32.875 151.163 31.9545C151.163 31.0455 151.032 30.25 150.771 29.5682C150.509 28.8864 150.126 28.3551 149.62 27.9744C149.115 27.5937 148.49 27.4034 147.745 27.4034C146.978 27.4034 146.339 27.6023 145.828 28C145.316 28.3977 144.93 28.9403 144.668 29.6278C144.413 30.3153 144.285 31.0909 144.285 31.9545C144.285 32.8295 144.416 33.6165 144.677 34.3153C144.938 35.0142 145.325 35.5682 145.836 35.9773C146.353 36.3807 146.99 36.5824 147.745 36.5824ZM161.988 38.7642C160.698 38.7642 159.587 38.4886 158.655 37.9375C157.729 37.3807 157.013 36.5994 156.507 35.5938C156.007 34.5824 155.757 33.3977 155.757 32.0398C155.757 30.6989 156.007 29.517 156.507 28.4943C157.013 27.4716 157.718 26.6733 158.621 26.0994C159.53 25.5256 160.593 25.2386 161.809 25.2386C162.547 25.2386 163.263 25.3608 163.956 25.6051C164.65 25.8494 165.272 26.233 165.823 26.7557C166.374 27.2784 166.809 27.9574 167.127 28.7926C167.445 29.6222 167.604 30.6307 167.604 31.8182V32.7216H157.198V30.8125H165.107C165.107 30.142 164.971 29.5483 164.698 29.0312C164.425 28.5085 164.042 28.0966 163.547 27.7955C163.059 27.4943 162.485 27.3438 161.826 27.3438C161.11 27.3438 160.485 27.5199 159.951 27.8722C159.422 28.2187 159.013 28.6733 158.723 29.2358C158.439 29.7926 158.297 30.3977 158.297 31.0511V32.5426C158.297 33.4176 158.451 34.1619 158.757 34.7756C159.07 35.3892 159.505 35.858 160.061 36.1818C160.618 36.5 161.269 36.6591 162.013 36.6591C162.496 36.6591 162.936 36.5909 163.334 36.4545C163.732 36.3125 164.076 36.1023 164.365 35.8239C164.655 35.5455 164.877 35.2017 165.03 34.7926L167.442 35.2273C167.249 35.9375 166.902 36.5597 166.402 37.0938C165.908 37.6222 165.286 38.0341 164.536 38.3295C163.792 38.6193 162.942 38.7642 161.988 38.7642ZM169.472 38.5V25.4091H171.935V27.4886H172.071C172.31 26.7841 172.73 26.2301 173.332 25.8267C173.94 25.4176 174.628 25.2131 175.395 25.2131C175.554 25.2131 175.741 25.2187 175.957 25.2301C176.179 25.2415 176.352 25.2557 176.477 25.2727V27.7102C176.375 27.6818 176.193 27.6506 175.932 27.6165C175.67 27.5767 175.409 27.5568 175.148 27.5568C174.545 27.5568 174.008 27.6847 173.537 27.9403C173.071 28.1903 172.702 28.5398 172.429 28.9886C172.156 29.4318 172.02 29.9375 172.02 30.5057V38.5H169.472Z" fill="#3B82F6"/>
</svg>
