<svg width="51" height="49" viewBox="0 0 51 49" fill="none" xmlns="http://www.w3.org/2000/svg">
<rect x="1.5" y="1" width="48" height="47" rx="23.5" stroke="#F4F3F3" stroke-width="2"/>
<path d="M25.6243 12.25C20.6243 12.25 17.291 15.5833 17.291 20.4167C17.291 26.9167 23.291 35 24.8743 36.5833C24.9577 36.6667 25.1243 36.75 25.291 36.75C25.4577 36.75 25.6243 36.6667 25.7077 36.5C26.541 35.5833 33.7077 27.25 33.7077 20.4167C33.791 14.75 29.7077 12.25 25.6243 12.25ZM25.291 35.1667C23.3743 32.9167 18.541 25.9167 18.541 20.4167C18.541 16.1667 21.291 13.5 25.6243 13.5C28.791 13.5 32.541 15.3333 32.541 20.4167C32.541 25.3333 28.2077 31.8333 25.291 35.1667ZM25.541 17.0833C23.7077 17.0833 22.2077 18.5833 22.2077 20.4167C22.2077 22.25 23.7077 23.75 25.541 23.75C27.3743 23.75 28.8743 22.25 28.8743 20.4167C28.8743 18.5833 27.3743 17.0833 25.541 17.0833ZM25.541 22.5C24.3743 22.5 23.4577 21.5833 23.4577 20.4167C23.4577 19.25 24.3743 18.3333 25.541 18.3333C26.7077 18.3333 27.6243 19.25 27.6243 20.4167C27.6243 21.5833 26.7077 22.5 25.541 22.5Z" fill="#3B82F6"/>
</svg>
