<svg width="50" height="51" viewBox="0 0 50 51" fill="none" xmlns="http://www.w3.org/2000/svg">
<rect x="1" y="1.90002" width="48" height="47.9" rx="23.95" stroke="#F4F3F3" stroke-width="2"/>
<path d="M36.4896 15.5641L35.2888 14.3633C35.2435 14.318 35.1869 14.2982 35.1274 14.2982C35.0679 14.2982 35.0113 14.3208 34.966 14.3633L32.8108 16.5185C31.8739 15.8837 30.7678 15.5452 29.6361 15.5471C28.1861 15.5471 26.7361 16.0993 25.6288 17.2067L22.7429 20.0925C22.7008 20.1351 22.6771 20.1926 22.6771 20.2525C22.6771 20.3124 22.7008 20.3699 22.7429 20.4125L30.4375 28.1071C30.4829 28.1525 30.5395 28.1723 30.599 28.1723C30.6556 28.1723 30.7151 28.1496 30.7604 28.1071L33.6462 25.2213C35.5975 23.2672 35.8269 20.2454 34.3344 18.0421L36.4896 15.8869C36.5774 15.7963 36.5774 15.6519 36.4896 15.5641ZM32.2812 23.8591L30.599 25.5413L25.3087 20.2511L26.991 18.5689C27.6961 17.8637 28.6364 17.4729 29.6361 17.4729C30.6358 17.4729 31.5732 17.8609 32.2812 18.5689C32.9864 19.274 33.3772 20.2143 33.3772 21.214C33.3772 22.2137 32.9864 23.1511 32.2812 23.8591ZM26.8947 26.8327C26.8521 26.7906 26.7946 26.7669 26.7347 26.7669C26.6747 26.7669 26.6172 26.7906 26.5747 26.8327L24.6885 28.7189L22.1312 26.1615L24.0202 24.2726C24.108 24.1848 24.108 24.0403 24.0202 23.9526L22.9893 22.9217C22.9467 22.8795 22.8892 22.8559 22.8293 22.8559C22.7694 22.8559 22.7119 22.8795 22.6693 22.9217L20.7803 24.8107L19.5625 23.5929C19.5414 23.5717 19.5162 23.555 19.4885 23.5439C19.4607 23.5327 19.431 23.5272 19.4011 23.5277C19.3445 23.5277 19.285 23.5504 19.2397 23.5929L16.3567 26.4787C14.4054 28.4328 14.176 31.4546 15.6685 33.6579L13.5133 35.8131C13.4712 35.8557 13.4475 35.9132 13.4475 35.9731C13.4475 36.033 13.4712 36.0905 13.5133 36.1331L14.7141 37.3339C14.7594 37.3792 14.8161 37.399 14.8755 37.399C14.935 37.399 14.9916 37.3764 15.037 37.3339L17.1921 35.1787C18.1465 35.8273 19.2567 36.1501 20.3668 36.1501C21.8168 36.1501 23.2668 35.5979 24.3742 34.4905L27.26 31.6047C27.3478 31.5169 27.3478 31.3725 27.26 31.2847L26.0422 30.0669L27.9312 28.1779C28.019 28.0901 28.019 27.9457 27.9312 27.8579L26.8947 26.8327ZM23.0091 33.1312C22.6625 33.4796 22.2503 33.7558 21.7963 33.9439C21.3423 34.132 20.8555 34.2283 20.364 34.2272C19.3643 34.2272 18.4269 33.8392 17.7189 33.1312C17.3705 32.7845 17.0943 32.3723 16.9061 31.9183C16.718 31.4643 16.6218 30.9775 16.6229 30.486C16.6229 29.4863 17.0109 28.5489 17.7189 27.8409L19.4011 26.1587L24.6914 31.4489L23.0091 33.1312Z" fill="#3B82F6"/>
</svg>
