<svg width="50" height="51" viewBox="0 0 50 51" fill="none" xmlns="http://www.w3.org/2000/svg">
<rect x="1" y="1.90002" width="48" height="47.9" rx="23.95" stroke="#F4F3F3" stroke-width="2"/>
<path d="M15 34.85H23C23.2652 34.85 23.5196 34.7447 23.7071 34.5571C23.8946 34.3696 24 34.1152 24 33.85C24 33.5848 23.8946 33.3304 23.7071 33.1429C23.5196 32.9554 23.2652 32.85 23 32.85H16.071C16.3137 31.1848 17.1471 29.6625 18.4192 28.5609C19.6914 27.4594 21.3172 26.8521 23 26.85C24.1775 26.8602 25.3214 26.4582 26.2336 25.7135C27.1457 24.9688 27.7686 23.9285 27.9943 22.7728C28.2199 21.6171 28.0341 20.4189 27.4691 19.3858C26.904 18.3527 25.9953 17.5499 24.9005 17.1164C23.8057 16.6829 22.5937 16.6462 21.4746 17.0125C20.3555 17.3788 19.3998 18.1251 18.7732 19.1221C18.1466 20.119 17.8885 21.3038 18.0438 22.471C18.199 23.6383 18.7576 24.7144 19.623 25.513C17.9632 26.1863 16.5418 27.3391 15.5402 28.8241C14.5386 30.3091 14.0024 32.0589 14 33.85C14 34.1152 14.1054 34.3696 14.2929 34.5571C14.4804 34.7447 14.7348 34.85 15 34.85ZM23 18.85C23.5933 18.85 24.1734 19.026 24.6667 19.3556C25.1601 19.6853 25.5446 20.1538 25.7716 20.702C25.9987 21.2501 26.0581 21.8533 25.9424 22.4353C25.8266 23.0172 25.5409 23.5518 25.1213 23.9713C24.7018 24.3909 24.1672 24.6766 23.5853 24.7924C23.0033 24.9081 22.4001 24.8487 21.8519 24.6217C21.3038 24.3946 20.8352 24.0101 20.5056 23.5167C20.1759 23.0234 20 22.4434 20 21.85C20 21.0544 20.3161 20.2913 20.8787 19.7287C21.4413 19.1661 22.2044 18.85 23 18.85ZM35.546 29.45H34.839C34.7459 29.4483 34.6555 29.4188 34.5792 29.3653C34.503 29.3119 34.4444 29.2369 34.411 29.15V29.144C34.3726 29.059 34.3605 28.9643 34.3764 28.8724C34.3922 28.7804 34.4353 28.6953 34.5 28.628L35 28.128C35.0423 28.0858 35.0759 28.0357 35.0988 27.9806C35.1217 27.9254 35.1334 27.8663 35.1334 27.8065C35.1334 27.7468 35.1217 27.6876 35.0988 27.6325C35.0759 27.5773 35.0423 27.5272 35 27.485L34.37 26.855C34.3278 26.8127 34.2777 26.7792 34.2225 26.7563C34.1674 26.7334 34.1082 26.7216 34.0485 26.7216C33.9888 26.7216 33.9296 26.7334 33.8745 26.7563C33.8193 26.7792 33.7692 26.8127 33.727 26.855L33.227 27.355C33.1597 27.4197 33.0746 27.4628 32.9826 27.4786C32.8907 27.4945 32.7961 27.4824 32.711 27.444H32.705C32.6181 27.4106 32.5431 27.352 32.4897 27.2758C32.4362 27.1996 32.4068 27.1091 32.405 27.016V26.309C32.4057 26.2486 32.3943 26.1886 32.3714 26.1326C32.3486 26.0766 32.3148 26.0257 32.2721 25.983C32.2293 25.9402 32.1784 25.9064 32.1224 25.8836C32.0665 25.8608 32.0065 25.8493 31.946 25.85H31.054C30.9944 25.85 30.9353 25.8618 30.8803 25.8846C30.8252 25.9074 30.7751 25.9408 30.733 25.983C30.6908 26.0251 30.6574 26.0752 30.6346 26.1303C30.6117 26.1854 30.6 26.2444 30.6 26.304V27.011C30.5982 27.1041 30.5688 27.1946 30.5153 27.2708C30.4619 27.347 30.3869 27.4056 30.3 27.439H30.294C30.2089 27.4774 30.1143 27.4895 30.0224 27.4736C29.9304 27.4578 29.8453 27.4147 29.778 27.35L29.278 26.85C29.2358 26.8077 29.1857 26.7742 29.1305 26.7513C29.0754 26.7284 29.0162 26.7166 28.9565 26.7166C28.8968 26.7166 28.8376 26.7284 28.7825 26.7513C28.7273 26.7742 28.6772 26.8077 28.635 26.85L28.005 27.48C27.9627 27.5222 27.9291 27.5723 27.9062 27.6275C27.8833 27.6826 27.8716 27.7418 27.8716 27.8015C27.8716 27.8612 27.8833 27.9204 27.9062 27.9756C27.9291 28.0307 27.9627 28.0808 28.005 28.123L28.505 28.623C28.5697 28.6903 28.6128 28.7754 28.6286 28.8674C28.6445 28.9593 28.6324 29.054 28.594 29.139V29.145C28.5606 29.2319 28.502 29.3069 28.4258 29.3603C28.3495 29.4138 28.2591 29.4433 28.166 29.445H27.459C27.3386 29.445 27.2231 29.4929 27.138 29.578C27.0528 29.6631 27.005 29.7786 27.005 29.899V30.791C27.005 30.9114 27.0528 31.0269 27.138 31.112C27.2231 31.1972 27.3386 31.245 27.459 31.245H28.166C28.2591 31.2468 28.3495 31.2763 28.4258 31.3297C28.502 31.3831 28.5606 31.4581 28.594 31.545V31.551C28.6324 31.6361 28.6445 31.7307 28.6286 31.8227C28.6128 31.9146 28.5697 31.9997 28.505 32.067L28.005 32.567C27.9627 32.6092 27.9291 32.6593 27.9062 32.7145C27.8833 32.7696 27.8716 32.8288 27.8716 32.8885C27.8716 32.9482 27.8833 33.0074 27.9062 33.0626C27.9291 33.1177 27.9627 33.1678 28.005 33.21L28.635 33.84C28.6772 33.8823 28.7273 33.9159 28.7825 33.9388C28.8376 33.9617 28.8968 33.9735 28.9565 33.9735C29.0162 33.9735 29.0754 33.9617 29.1305 33.9388C29.1857 33.9159 29.2358 33.8823 29.278 33.84L29.778 33.34C29.8453 33.2753 29.9304 33.2323 30.0224 33.2164C30.1143 33.2005 30.2089 33.2126 30.294 33.251H30.3C30.3869 33.2844 30.4619 33.343 30.5153 33.4192C30.5688 33.4955 30.5982 33.5859 30.6 33.679V34.386C30.6 34.4456 30.6117 34.5047 30.6346 34.5598C30.6574 34.6148 30.6908 34.6649 30.733 34.707C30.7751 34.7492 30.8252 34.7826 30.8803 34.8055C30.9353 34.8283 30.9944 34.84 31.054 34.84H31.946C32.0056 34.84 32.0647 34.8283 32.1197 34.8055C32.1748 34.7826 32.2249 34.7492 32.267 34.707C32.3092 34.6649 32.3426 34.6148 32.3654 34.5598C32.3883 34.5047 32.4 34.4456 32.4 34.386V33.679C32.4018 33.5859 32.4312 33.4955 32.4847 33.4192C32.5381 33.343 32.6131 33.2844 32.7 33.251H32.706C32.7911 33.2126 32.8857 33.2005 32.9776 33.2164C33.0696 33.2323 33.1547 33.2753 33.222 33.34L33.722 33.84C33.7642 33.8823 33.8143 33.9159 33.8695 33.9388C33.9246 33.9617 33.9838 33.9735 34.0435 33.9735C34.1032 33.9735 34.1624 33.9617 34.2175 33.9388C34.2727 33.9159 34.3228 33.8823 34.365 33.84L34.995 33.21C35.0373 33.1678 35.0709 33.1177 35.0938 33.0626C35.1167 33.0074 35.1284 32.9482 35.1284 32.8885C35.1284 32.8288 35.1167 32.7696 35.0938 32.7145C35.0709 32.6593 35.0373 32.6092 34.995 32.567L34.495 32.067C34.4303 31.9997 34.3872 31.9146 34.3714 31.8227C34.3555 31.7307 34.3676 31.6361 34.406 31.551V31.545C34.4394 31.4581 34.498 31.3831 34.5742 31.3297C34.6505 31.2763 34.7409 31.2468 34.834 31.245H35.541C35.6006 31.2457 35.6598 31.2346 35.7151 31.2124C35.7705 31.1902 35.8209 31.1573 35.8635 31.1156C35.9061 31.0739 35.9401 31.0242 35.9635 30.9694C35.987 30.9145 35.9993 30.8556 36 30.796V29.904C36 29.7836 35.9522 29.6681 35.867 29.583C35.7819 29.4978 35.6664 29.45 35.546 29.45ZM31.5 31.7C31.233 31.7 30.972 31.6208 30.75 31.4725C30.528 31.3242 30.3549 31.1133 30.2528 30.8666C30.1506 30.62 30.1238 30.3485 30.1759 30.0866C30.228 29.8248 30.3566 29.5842 30.5454 29.3954C30.7342 29.2066 30.9748 29.078 31.2366 29.026C31.4985 28.9739 31.7699 29.0006 32.0166 29.1028C32.2633 29.205 32.4741 29.378 32.6225 29.6C32.7708 29.822 32.85 30.083 32.85 30.35C32.8501 30.5273 32.8153 30.7029 32.7475 30.8668C32.6797 31.0306 32.5803 31.1795 32.4549 31.3049C32.3295 31.4303 32.1806 31.5297 32.0168 31.5975C31.8529 31.6653 31.6773 31.7001 31.5 31.7Z" fill="#3B82F6"/>
</svg>
