<svg width="50" height="49" viewBox="0 0 50 49" fill="none" xmlns="http://www.w3.org/2000/svg">
<rect x="1" y="1" width="48" height="47" rx="23.5" stroke="#F4F3F3" stroke-width="2"/>
<path fill-rule="evenodd" clip-rule="evenodd" d="M19.2605 26.6146V25.7083C19.2605 25.2081 19.6665 24.8021 20.1667 24.8021C20.667 24.8021 21.073 25.2081 21.073 25.7083V26.6146H21.9792C22.4795 26.6146 22.8855 27.0206 22.8855 27.5208C22.8855 28.0211 22.4795 28.4271 21.9792 28.4271H21.073V29.3333C21.073 29.8336 20.667 30.2396 20.1667 30.2396C19.6665 30.2396 19.2605 29.8336 19.2605 29.3333V28.4271H18.3542C17.854 28.4271 17.448 28.0211 17.448 27.5208C17.448 27.0206 17.854 26.6146 18.3542 26.6146H19.2605Z" fill="#3B82F6"/>
<path fill-rule="evenodd" clip-rule="evenodd" d="M28.927 25.7083C28.927 26.2086 29.333 26.6146 29.8333 26.6146C30.3335 26.6146 30.7395 26.2086 30.7395 25.7083C30.7395 25.2081 30.3335 24.8021 29.8333 24.8021C29.333 24.8021 28.927 25.2081 28.927 25.7083Z" fill="#3B82F6"/>
<path fill-rule="evenodd" clip-rule="evenodd" d="M30.7395 27.5208C30.7395 28.0211 31.1455 28.4271 31.6458 28.4271C32.146 28.4271 32.552 28.0211 32.552 27.5208C32.552 27.0206 32.146 26.6146 31.6458 26.6146C31.1455 26.6146 30.7395 27.0206 30.7395 27.5208Z" fill="#3B82F6"/>
<path fill-rule="evenodd" clip-rule="evenodd" d="M27.1145 27.5208C27.1145 28.0211 27.5205 28.4271 28.0208 28.4271C28.521 28.4271 28.927 28.0211 28.927 27.5208C28.927 27.0206 28.521 26.6146 28.0208 26.6146C27.5205 26.6146 27.1145 27.0206 27.1145 27.5208Z" fill="#3B82F6"/>
<path fill-rule="evenodd" clip-rule="evenodd" d="M28.927 29.3333C28.927 29.8336 29.333 30.2396 29.8333 30.2396C30.3335 30.2396 30.7395 29.8336 30.7395 29.3333C30.7395 28.8331 30.3335 28.4271 29.8333 28.4271C29.333 28.4271 28.927 28.8331 28.927 29.3333Z" fill="#3B82F6"/>
<path fill-rule="evenodd" clip-rule="evenodd" d="M16.8438 13.625C16.8438 13.1248 17.2498 12.7188 17.75 12.7188C18.2503 12.7188 18.6562 13.1248 18.6562 13.625V13.996C18.6562 14.7343 19.1891 15.3626 19.9165 15.4834C20.9195 15.6514 22.129 15.8532 23.1319 16.0199C24.733 16.287 25.9062 17.6717 25.9062 19.2957V19.3646H31.0417C34.2111 19.3646 36.7812 21.9347 36.7812 25.1042C36.7812 26.843 36.7812 28.8029 36.7812 30.5417C36.7812 33.7111 34.2111 36.2812 31.0417 36.2812C30.7952 36.2812 30.5583 36.2812 30.3336 36.2812C28.9996 36.2812 27.72 35.7508 26.7763 34.8071C26.6566 34.6875 26.537 34.5678 26.4222 34.453C26.0452 34.076 25.5329 33.8646 25 33.8646C24.4671 33.8646 23.9548 34.076 23.5778 34.453C23.463 34.5678 23.3434 34.6875 23.2238 34.8071C22.28 35.7508 21.0004 36.2812 19.6664 36.2812C19.4417 36.2812 19.2048 36.2812 18.9583 36.2812C15.7889 36.2812 13.2188 33.7111 13.2188 30.5417C13.2188 28.8029 13.2188 26.843 13.2188 25.1042C13.2188 21.9347 15.7889 19.3646 18.9583 19.3646H24.0938V19.2957C24.0938 18.5574 23.5609 17.9291 22.8335 17.8082C21.8305 17.6403 20.621 17.4385 19.6181 17.2718C18.017 17.0047 16.8438 15.62 16.8438 13.996V13.625ZM31.0417 21.1771C33.2106 21.1771 34.9688 22.9352 34.9688 25.1042C34.9688 26.843 34.9688 28.8029 34.9688 30.5417C34.9688 32.7106 33.2106 34.4688 31.0417 34.4688C30.7952 34.4688 30.5583 34.4688 30.3336 34.4688C29.4805 34.4688 28.6613 34.1292 28.0571 33.5262C27.9375 33.4066 27.8178 33.287 27.703 33.1722C26.9865 32.4545 26.0138 32.0521 25 32.0521C23.9862 32.0521 23.0135 32.4545 22.297 33.1722C22.1822 33.287 22.0625 33.4066 21.9429 33.5262C21.3388 34.1292 20.5195 34.4688 19.6664 34.4688C19.4417 34.4688 19.2048 34.4688 18.9583 34.4688C16.7894 34.4688 15.0312 32.7106 15.0312 30.5417V25.1042C15.0312 22.9352 16.7894 21.1771 18.9583 21.1771H31.0417Z" fill="#3B82F6"/>
</svg>
