<svg width="402" height="337" viewBox="0 0 402 337" fill="none" xmlns="http://www.w3.org/2000/svg">
<g clip-path="url(#clip0_68_217)">
<path d="M227.409 46.9191C232.316 49.038 236.914 51.386 241.082 53.8881C255.656 62.6305 267.38 75.3586 281.701 84.1273C295.225 92.4068 311.739 94.4196 327.214 95.8035C354.188 98.2161 410.446 121.353 400.288 164.236C396.593 179.842 383.56 190.441 376.887 204.572C369.79 219.605 370.535 238.355 359.234 251.387C354.262 257.118 347.4 260.902 340.354 263.769C293.465 282.842 240.809 281.955 191.09 279.853C151.848 278.194 88.8187 286.964 54.3495 265.548C37.2364 254.915 46.1354 225.849 34.2939 210.237C24.3435 197.119 10.8009 188.503 4.14833 172.082C-7.17271 144.14 8.96434 107.778 37.2188 97.8594C54.8748 91.6613 73.5799 88.8217 91.033 82.0147C109.064 74.9795 116.012 64.4421 129.763 51.9702C154.623 29.4271 196.933 33.7536 227.409 46.9191Z" fill="#5793FF"/>
<path d="M270.835 269.241H134.727V184.534C134.727 182.933 136.007 181.636 137.585 181.636H267.977C269.556 181.636 270.835 182.933 270.835 184.534V269.241Z" fill="#D3D3D3"/>
<path d="M139.709 187.773H265.855V262.471H139.709V187.773Z" fill="#F2F2F2"/>
<path d="M113.08 294.456C111.829 296.084 114.219 300.947 117.969 300.947H290.502C294.249 300.947 296.61 296.084 295.175 294.456H113.08Z" fill="#D3D3D3"/>
<path d="M294.694 293.566C296.128 295.192 294.249 296.511 290.503 296.511H117.97C114.22 296.511 112.196 295.192 113.447 293.566L131.111 270.583C132.362 268.956 135.636 267.638 138.425 267.638H266.786C269.573 267.638 272.999 268.956 274.433 270.583C281.185 278.247 287.941 285.904 294.694 293.566Z" fill="#F2F2F2"/>
<g opacity="0.5">
<path d="M151.765 275.389H145.938C146.762 274.175 147.175 273.566 147.998 272.35H153.595L151.765 275.389ZM159.318 275.389H153.49C154.196 274.175 154.549 273.566 155.253 272.35H160.849L159.318 275.389ZM156.904 271.769H148.398L149.166 270.634H157.544L156.904 271.769ZM166.875 271.769L158.366 271.769L158.981 270.634H167.358C167.166 271.089 167.067 271.315 166.875 271.769ZM176.846 271.769H168.336L168.796 270.634H177.178L176.846 271.769ZM186.816 271.769H178.308L178.614 270.634H186.993C186.924 271.089 186.888 271.315 186.816 271.769ZM196.788 271.769H188.278L188.433 270.634H196.809L196.788 271.769ZM206.758 271.769H198.251V270.634H206.628C206.68 271.089 206.704 271.315 206.758 271.769ZM216.73 271.769H208.221L208.066 270.634H216.446C216.558 271.089 216.616 271.315 216.73 271.769ZM226.702 271.769H218.192L217.884 270.634H226.262C226.439 271.089 226.527 271.315 226.702 271.769ZM236.674 271.769H228.164C227.978 271.315 227.885 271.089 227.699 270.634H236.081L236.674 271.769ZM246.643 271.769H238.135C237.889 271.315 237.764 271.089 237.52 270.634H245.895C246.193 271.089 246.343 271.315 246.643 271.769ZM257.769 271.769H248.106L247.335 270.634H256.85C257.217 271.089 257.402 271.315 257.769 271.769ZM166.867 275.389H161.041C161.627 274.175 161.921 273.567 162.505 272.352L168.1 272.35C167.608 273.567 167.361 274.173 166.867 275.389ZM174.418 275.389H168.591C169.059 274.175 169.291 273.566 169.76 272.35L175.355 272.352L174.418 275.389ZM181.97 275.389H176.144C176.492 274.173 176.667 273.567 177.014 272.35H182.609C182.354 273.566 182.224 274.175 181.97 275.389ZM189.521 275.389H183.695C183.923 274.175 184.035 273.564 184.265 272.35H189.863C189.725 273.566 189.655 274.175 189.521 275.389ZM197.068 275.389H191.247L191.519 272.35H197.113C197.097 273.566 197.088 274.175 197.068 275.389ZM204.623 275.389H198.797L198.774 272.35H204.368C204.471 273.566 204.522 274.175 204.623 275.389ZM212.173 275.389H206.349L206.03 272.35H211.622C211.843 273.566 211.952 274.175 212.173 275.389ZM219.722 275.389H213.898C213.651 274.175 213.527 273.566 213.279 272.35H218.875C219.213 273.566 219.383 274.175 219.722 275.389ZM149.325 279.441H143.195L145.251 276.402H151.155L149.325 279.441ZM157.275 279.441H151.143C151.849 278.226 152.201 277.618 152.906 276.402H158.809C158.194 277.617 157.886 278.225 157.275 279.441ZM165.222 279.441H159.09C159.675 278.226 159.966 277.618 160.553 276.402H166.455C165.961 277.618 165.714 278.225 165.222 279.441ZM173.17 279.441H167.036C167.503 278.226 167.737 277.618 168.202 276.402H174.106C173.731 277.618 173.543 278.225 173.17 279.441ZM181.118 279.441H174.987C175.335 278.226 175.508 277.618 175.855 276.405C178.217 276.405 179.395 276.402 181.757 276.402C181.499 277.618 181.373 278.225 181.118 279.441ZM189.063 279.441H182.932L183.503 276.402H189.405C189.269 277.617 189.199 278.225 189.063 279.441ZM197.009 279.441H190.88L191.155 276.402H197.052L197.009 279.441ZM204.959 279.441H198.827L198.805 276.402H204.706C204.806 277.618 204.859 278.225 204.959 279.441ZM212.905 279.441H206.777C206.648 278.226 206.583 277.618 206.457 276.402H212.355L212.905 279.441ZM220.852 279.441H214.722C214.474 278.226 214.349 277.618 214.103 276.402H220.004L220.852 279.441ZM146.887 283.492H140.449C141.271 282.277 141.685 281.668 142.508 280.454L148.717 280.453C147.985 281.667 147.617 282.276 146.887 283.492ZM155.231 283.492H148.795L150.555 280.454H156.765C156.151 281.667 155.843 282.276 155.231 283.492ZM163.576 283.492H157.137L158.601 280.454H164.809L163.576 283.492ZM171.919 283.492H165.479L166.646 280.454H172.856L171.919 283.492ZM180.263 283.492H173.827C174.174 282.277 174.35 281.668 174.695 280.454H180.903C180.649 281.667 180.52 282.276 180.263 283.492ZM188.605 283.492H182.169C182.397 282.277 182.513 281.668 182.742 280.454H188.95L188.605 283.492ZM196.947 283.492H190.515L190.787 280.454H196.992C196.976 281.667 196.967 282.276 196.947 283.492ZM205.297 283.492H198.859C198.851 282.277 198.846 281.668 198.836 280.454H205.044C205.145 281.667 205.194 282.276 205.297 283.492ZM213.639 283.492H207.206C207.077 282.277 207.012 281.668 206.884 280.454H213.089C213.309 281.667 213.421 282.276 213.639 283.492ZM221.981 283.492H215.543C215.298 282.277 215.174 281.668 214.927 280.454H221.134L221.981 283.492ZM144.447 287.541H137.703C138.526 286.326 138.94 285.719 139.763 284.505H146.275C145.667 285.517 145.057 286.529 144.447 287.541ZM153.189 287.541H146.446L148.209 284.505H154.723C154.109 285.719 153.801 286.326 153.189 287.541ZM161.928 287.541H155.186C155.771 286.326 156.065 285.719 156.652 284.505H163.163C162.67 285.719 162.424 286.326 161.928 287.541ZM170.64 287.637H163.886C164.37 286.385 164.609 285.758 165.09 284.505H171.607C171.22 285.757 171.028 286.385 170.64 287.637ZM223.113 287.541H172.667C173.013 286.326 173.186 285.719 173.534 284.505H222.266L223.113 287.541ZM185.824 294.215H224.093L220.87 289.04H188.87L185.824 294.215ZM226.555 275.389H220.729C220.372 274.175 220.197 273.566 219.842 272.35H225.438C225.884 273.564 226.106 274.175 226.555 275.389ZM228.043 279.441H221.91C221.556 278.226 221.38 277.618 221.024 276.402H226.929C227.373 277.618 227.597 278.225 228.043 279.441ZM229.532 283.492H223.093C222.738 282.277 222.563 281.668 222.208 280.454H228.416C228.862 281.667 229.084 282.276 229.532 283.492ZM231.02 287.541H224.276L223.389 284.505H229.903L231.02 287.541ZM233.384 275.389H227.558C227.095 274.175 226.863 273.566 226.402 272.35H231.999C232.551 273.566 232.83 274.175 233.384 275.389ZM235.232 279.441H229.1C228.638 278.226 228.405 277.618 227.945 276.402H233.847C234.399 277.617 234.678 278.225 235.232 279.441ZM237.079 283.492H230.641L229.484 280.454H235.692C236.249 281.667 236.524 282.276 237.079 283.492ZM238.926 287.541H232.181C231.721 286.326 231.488 285.719 231.028 284.505H237.54C238.095 285.719 238.37 286.326 238.926 287.541ZM240.214 275.389H234.389L232.963 272.35H238.56C239.222 273.566 239.554 274.175 240.214 275.389ZM242.419 279.441H236.288L234.862 276.402H240.765C241.426 277.618 241.759 278.225 242.419 279.441ZM244.627 283.492H238.189C237.618 282.277 237.335 281.668 236.763 280.454H242.973L244.627 283.492ZM246.832 287.541H240.088C239.518 286.326 239.234 285.719 238.663 284.505H245.177L246.832 287.541ZM247.043 275.389H241.218L239.525 272.35H245.119C245.891 273.566 246.274 274.175 247.043 275.389ZM249.608 279.441H243.477L241.783 276.402H247.685C248.454 277.618 248.841 278.225 249.608 279.441ZM252.173 283.492H245.737C245.059 282.277 244.722 281.668 244.042 280.454H250.251C251.021 281.667 251.405 282.276 252.173 283.492ZM254.739 287.541H247.995C247.431 286.528 246.866 285.516 246.3 284.505H252.816C253.584 285.719 253.968 286.326 254.739 287.541ZM253.876 275.389H248.048C247.262 274.175 246.869 273.566 246.083 272.35H251.681C252.558 273.566 252.996 274.175 253.876 275.389ZM256.797 279.441H250.665C249.879 278.226 249.486 277.618 248.703 276.402H254.605C255.482 277.618 255.921 278.225 256.797 279.441ZM259.722 283.492H253.281C252.497 282.277 252.106 281.668 251.32 280.454H257.53C258.408 281.667 258.845 282.276 259.722 283.492ZM262.644 287.541H255.898L253.936 284.505H260.452L262.644 287.541ZM260.702 275.389H254.878C253.985 274.175 253.54 273.566 252.644 272.35H258.242C259.226 273.566 259.718 274.175 260.702 275.389ZM263.985 279.441H257.853C256.963 278.226 256.514 277.618 255.623 276.402H261.524L263.985 279.441ZM267.268 283.492H260.83C259.937 282.277 259.491 281.668 258.598 280.454H264.806C265.791 281.667 266.283 282.276 267.268 283.492ZM270.55 287.541H263.805L261.574 284.505H268.088C269.073 285.719 269.564 286.326 270.55 287.541Z" fill="#D3D3D3"/>
</g>
<path d="M235.083 262.451H175.022C175.452 260.716 175.845 259.331 176.189 258.367C176.368 257.872 176.614 257.403 176.921 256.975C177.985 255.474 179.807 254.198 182.155 253.119C184.957 251.83 188.503 250.816 192.391 250.012C196.522 249.169 201.029 248.562 205.417 248.122C205.713 248.096 206.007 248.065 206.304 248.039C211.184 247.586 215.872 247.337 219.655 247.217C224.878 247.037 228.399 247.074 228.399 247.074C228.399 247.074 228.681 247.522 229.176 248.416C230.335 250.536 232.652 255.182 235.083 262.451Z" fill="#0B4870"/>
<path d="M189.074 164.927C188.96 165.693 188.76 166.403 188.476 167.086L188.646 165.154C188.79 165.068 188.933 165.012 189.074 164.927Z" fill="#FFE3CA"/>
<path d="M220.888 162.059V162.085C220.83 162.059 220.773 162.03 220.746 162.03C220.804 162.031 220.83 162.059 220.888 162.059Z" fill="#EEBEA7"/>
<path d="M282.528 202.816C282.528 202.816 286.238 199.394 285.503 196.826C284.88 194.647 285.82 192.207 286.054 191.194C286.372 189.852 286.5 185.497 287.505 185.734C289.208 186.146 288.815 193.098 289.024 194.58C289.234 196.061 293.746 191.102 295.283 190.843C296.825 190.578 304.655 198.476 301.167 201.526C297.678 204.57 292.867 205.806 292.358 206.463C291.851 207.121 289.46 208.928 289.46 208.928L282.528 202.816Z" fill="#F1B99E"/>
<path d="M294.298 191.358C294.298 191.358 305.607 182.739 306.843 182.791C308.084 182.84 308.512 183.482 307.487 184.33C306.466 185.179 296.809 192.979 296.809 192.979C296.809 192.979 311.912 185.01 312.938 184.832C313.533 184.727 313.99 185.867 313.481 186.373C312.976 186.875 298.921 195.675 298.921 195.675C298.921 195.675 313.035 188.259 313.935 188.364C314.724 188.459 315.287 189.753 314.278 190.374C313.268 190.994 300.557 198.616 300.557 198.616C300.557 198.616 311.176 193.866 311.882 194.397C312.311 194.726 312.924 195.447 310.15 196.587C307.37 197.728 301.325 201.371 301.325 201.371L294.298 191.358Z" fill="#F1B99E"/>
<path d="M213.556 154.619V155.385C213.496 155.245 213.441 155.13 213.413 154.988C213.355 154.96 213.355 154.904 213.355 154.873C213.413 154.79 213.469 154.706 213.556 154.619Z" fill="#FFBE55"/>
<path d="M205.053 159.277C204.939 159.304 204.794 159.304 204.682 159.304V159.248C204.794 159.277 204.939 159.277 205.053 159.277ZM213.556 154.619V154.847C213.507 154.893 213.46 154.94 213.413 154.988C213.1 155.329 212.756 155.64 212.414 155.954C212.27 156.068 212.157 156.18 212.016 156.294C212.185 156.125 212.385 155.925 212.559 155.755C212.816 155.5 213.071 155.188 213.355 154.873C213.413 154.79 213.469 154.706 213.556 154.619Z" fill="#EEBEA7"/>
<path d="M220.089 144.824C218.521 148.289 216.608 151.413 214.438 153.883C214.155 154.223 213.839 154.563 213.555 154.848V154.619C213.469 154.706 213.413 154.791 213.354 154.874C213.07 155.189 212.815 155.501 212.559 155.756C212.384 155.927 212.185 156.126 212.016 156.295C211.955 156.324 211.901 156.382 211.844 156.438C211.757 156.522 211.672 156.608 211.585 156.636C211.36 156.832 211.122 157.012 210.872 157.175C210.559 157.402 210.274 157.6 209.962 157.771C209.887 157.821 209.811 157.869 209.733 157.914C209.445 158.082 209.163 158.225 208.908 158.338C208.651 158.475 208.383 158.589 208.106 158.679L208.079 158.708C207.851 158.766 207.678 158.85 207.478 158.907C207.419 158.936 207.366 158.964 207.306 158.964C207.109 159.02 206.908 159.076 206.707 159.106C206.652 159.106 206.623 159.134 206.566 159.134H206.479C206.337 159.164 206.167 159.192 206.025 159.221C205.881 159.248 205.71 159.248 205.568 159.248C205.427 159.277 205.28 159.277 205.166 159.277H205.139C205.112 159.304 205.083 159.304 205.054 159.277C204.94 159.277 204.795 159.277 204.683 159.248V159.304C204.513 159.304 204.34 159.277 204.142 159.248C203.941 159.221 203.713 159.192 203.512 159.164C203.398 159.134 203.287 159.134 203.141 159.106C203.028 159.076 202.913 159.076 202.799 159.02C202.201 158.878 201.632 158.651 201.031 158.338C200.844 158.246 200.663 158.143 200.488 158.028C199.548 157.489 198.633 156.722 197.691 155.755C197.352 155.417 197.037 155.018 196.694 154.619C195.239 152.801 193.786 150.39 192.444 147.324C191.896 146.098 191.382 144.857 190.902 143.603C191.614 144.994 190.372 132.017 190.658 132.473C186.779 125.091 190.645 131.166 192.018 127.506C200.604 131.111 217.293 137.329 217.293 131.025C217.293 131.025 217.663 134.859 218.093 138.833C218.435 142.098 218.806 145.479 218.979 146.756C218.978 146.755 219.432 146.045 220.089 144.824Z" fill="#F4C7B1"/>
<path d="M205.053 159.277C204.939 159.304 204.794 159.304 204.682 159.304V159.248C204.794 159.277 204.939 159.277 205.053 159.277ZM213.556 154.619V154.847C213.507 154.893 213.46 154.94 213.413 154.988C213.1 155.329 212.756 155.64 212.414 155.954C212.27 156.068 212.157 156.18 212.016 156.294C212.185 156.125 212.385 155.925 212.559 155.755C212.816 155.5 213.071 155.188 213.355 154.873C213.413 154.79 213.469 154.706 213.556 154.619Z" fill="#EEBEA7"/>
<path d="M190.901 143.603C188.616 139.117 184.937 130.544 185.594 122.422V122.393C184.568 115.665 192.984 103.541 205.824 104.165C218.662 103.541 227.08 115.665 226.052 122.393V122.422C226.449 127.334 225.252 132.388 223.769 136.62C224.71 136.589 225.621 136.703 226.535 137.016C231.644 138.692 234.039 145.307 231.871 151.753C229.733 158.225 223.825 162.086 218.719 160.411C216.35 159.644 214.551 157.8 213.555 155.385V154.847C213.839 154.563 214.155 154.222 214.438 153.882C216.607 151.412 218.52 148.288 220.089 144.824C219.431 146.045 219.031 147.545 219.031 147.545C218.859 146.27 218.432 142.097 218.091 138.832C217.66 134.858 217.29 131.024 217.29 131.024C217.29 137.329 200.602 131.11 192.016 127.505L190.901 143.603Z" fill="#FFBE55"/>
<path d="M213.556 154.619V155.385C213.556 155.925 213.529 156.578 213.556 157.316C212.728 158.338 211.901 159.191 211.045 159.843C210.757 160.07 210.473 160.27 210.189 160.468C209.974 160.629 209.744 160.772 209.504 160.893H209.476C208.164 161.631 206.85 162 205.567 162.029H204.91C204.825 162.029 204.74 162.029 204.682 162V159.246C204.794 159.276 204.939 159.276 205.053 159.276C205.082 159.302 205.111 159.302 205.138 159.276H205.165C205.311 159.302 205.425 159.302 205.567 159.302C205.739 159.302 205.938 159.276 206.109 159.246C206.308 159.219 206.538 159.19 206.738 159.162C206.85 159.132 206.964 159.132 207.109 159.105C207.223 159.074 207.337 159.074 207.451 159.019C208.05 158.877 208.62 158.649 209.216 158.336C209.39 158.253 209.592 158.14 209.76 158.027C210.387 157.686 210.986 157.229 211.586 156.634C211.673 156.606 211.758 156.52 211.845 156.435C211.901 156.379 211.956 156.322 212.016 156.292C212.185 156.124 212.385 155.924 212.559 155.754C212.816 155.498 213.071 155.186 213.355 154.872C213.413 154.79 213.469 154.706 213.556 154.619Z" fill="#A5735B"/>
<path d="M204.684 178.951V255.811L218.009 255.245L228.966 254.762L227.851 241.332L226.625 226.31C224.722 227.113 222.829 227.938 220.945 228.783C221.459 222.848 221.687 217.397 221.345 212.938C220.004 196.356 217.922 182.842 216.295 174.012V173.983C216.465 172.28 216.236 170.377 215.839 168.617C215.78 168.254 215.704 167.894 215.611 167.538C215.496 167.14 215.413 166.772 215.298 166.403L215.039 165.552C214.983 165.353 214.896 165.154 214.842 164.983C214.633 164.288 214.384 163.606 214.097 162.939H214.042C214.271 163.962 215.069 167.369 216.066 172.734V172.763C215.414 175.602 213.328 177.192 210.76 178.074C210.732 178.074 210.677 178.1 210.645 178.1C208.879 178.698 206.881 178.924 204.971 178.952C204.885 178.951 204.77 178.981 204.684 178.951Z" fill="#0E538C"/>
<path d="M235.125 202.861C235.811 203.909 236.779 205.841 237.75 208.028C237.609 210.441 237.437 211.887 237.437 211.887C237.437 211.887 236.382 214.641 234.983 218.959C234.61 220.036 231.019 239.117 230.619 240.367C230.533 240.594 230.474 240.849 230.391 241.077C229.079 241.728 229.372 240.592 227.087 241.503C226.406 241.786 225.661 242.07 224.891 242.409C224.777 242.469 224.636 242.524 224.433 242.608C224.205 242.694 223.977 242.779 223.749 242.892C222.231 243.542 220.72 244.205 219.214 244.881C219.726 238.946 221.688 217.397 221.344 212.939C220.004 196.357 217.923 182.843 216.296 174.012V173.984C216.208 173.558 216.155 173.162 216.068 172.763V172.734C215.069 167.369 214.271 163.963 214.041 162.939H221.432V162.997C223.485 162.854 233.177 161.497 239.798 167.771C236.144 166.209 231.304 167.623 229.679 168.618C229.022 168.993 228.417 169.451 227.878 169.98C227.051 170.749 226.374 171.664 225.883 172.678C221.147 182.417 233.127 199.849 235.125 202.861Z" fill="#3B82F6"/>
<path d="M235.664 262.451H217.302C217.493 260.123 217.737 257.708 218.007 255.246C218.282 252.604 218.61 249.917 218.923 247.217C219.027 246.284 219.136 245.358 219.238 244.428C219.238 244.428 219.245 244.428 219.252 244.422C221.482 243.61 224.414 239.838 227.629 238.575C227.705 238.548 227.776 238.517 227.853 238.491C228.769 238.179 229.68 240.706 230.617 240.367C231.219 246.712 233.369 254.991 235.664 262.451Z" fill="#3B82F6"/>
<path d="M204.684 162.002V178.952C204.77 178.981 204.885 178.952 204.972 178.952C206.882 178.924 208.88 178.698 210.646 178.1C210.679 178.1 210.733 178.074 210.76 178.074C213.328 177.192 215.414 175.602 216.067 172.763V172.734C215.07 167.369 214.272 163.963 214.043 162.939H213.643V162.4C213.643 162.06 213.613 161.747 213.613 161.434C213.586 160.412 213.586 159.447 213.558 158.509V157.318C212.731 158.339 211.902 159.193 211.047 159.845C210.783 160.079 210.497 160.288 210.193 160.47C209.977 160.63 209.748 160.772 209.508 160.895H209.48C208.08 161.691 206.711 162.031 205.342 162.031C205.113 162.031 204.885 162.031 204.684 162.002Z" fill="#F4C7B1"/>
<path d="M286.539 199.236L287.199 200.406L287.219 200.428L292.374 209.497L293.171 210.893C293.171 210.893 291.608 211.519 289.15 212.554C286.913 213.495 283.942 214.732 280.723 216.119C279.83 216.515 278.933 216.904 278.033 217.284C271.772 220.048 265.181 222.998 261.881 224.887C254.681 228.978 248.69 230.408 245.04 230.333C241.409 230.237 233.446 208.85 232.203 203.719C230.942 198.61 226.283 189.196 222.945 180.233C221.533 176.424 221.941 173.064 223.15 170.395C224.759 166.778 227.792 164.441 229.665 164.067C230.403 163.899 231.16 163.825 231.917 163.848C233.084 163.853 234.185 164.075 235.22 164.474C245.352 168.403 248.49 189.292 249.083 192.85C249.301 194.085 249.91 196.155 250.694 198.415C252.432 203.703 254.962 210.083 254.962 210.083C260.05 207.901 262.151 207.278 264.089 206.725C265.497 206.316 266.824 205.982 269.119 205.104C269.812 204.849 270.552 204.551 271.347 204.28C273.29 203.58 275.241 202.903 277.2 202.248C282.043 200.637 286.539 199.236 286.539 199.236Z" fill="#3B82F6"/>
<path d="M205.567 159.248V162.002C205.482 162.031 205.426 162.031 205.34 162.031H204.681C203.396 162.002 202.083 161.632 200.771 160.895H200.743C200.503 160.772 200.274 160.63 200.058 160.47C199.767 160.27 199.482 160.061 199.203 159.845C198.348 159.193 197.519 158.339 196.692 157.318C196.72 156.211 196.692 155.273 196.692 154.62C197.035 155.019 197.35 155.418 197.689 155.757C198.632 156.723 199.546 157.491 200.487 158.03C200.658 158.143 200.858 158.257 201.03 158.339C201.63 158.652 202.2 158.88 202.797 159.022C202.911 159.078 203.026 159.078 203.139 159.108C203.286 159.135 203.396 159.135 203.51 159.165C203.711 159.193 203.939 159.222 204.141 159.249C204.338 159.279 204.511 159.305 204.681 159.305C204.793 159.305 204.939 159.305 205.052 159.279C205.081 159.305 205.11 159.305 205.137 159.279H205.165C205.279 159.277 205.425 159.277 205.567 159.248Z" fill="#A5735B"/>
<path d="M205.567 178.951V255.811L192.242 255.245L181.286 254.762L182.399 241.332L183.626 226.31C185.395 227.051 187.393 227.93 189.305 228.783C188.79 222.848 188.565 217.397 188.906 212.938C190.246 196.356 192.327 182.842 193.954 174.012V173.983C193.785 172.28 194.014 170.377 194.412 168.617C194.467 168.245 194.554 167.88 194.641 167.538C194.756 167.14 194.838 166.772 194.952 166.403L195.211 165.552C195.267 165.353 195.354 165.154 195.41 164.983C195.62 164.289 195.868 163.606 196.153 162.939H196.208C195.98 163.962 195.18 167.369 194.183 172.734V172.763C194.838 175.602 196.923 177.192 199.492 178.074C199.52 178.074 199.576 178.1 199.606 178.1C201.372 178.698 203.372 178.924 205.28 178.952C205.365 178.951 205.482 178.981 205.567 178.951Z" fill="#0E538C"/>
<path d="M196.207 162.938C195.98 163.961 195.179 167.368 194.182 172.733V172.763C194.097 173.16 194.04 173.558 193.954 173.983V174.012C192.327 182.842 190.246 196.356 188.906 212.938C188.564 217.396 188.79 222.848 189.305 228.783C187.421 227.938 185.528 227.113 183.626 226.31C182.856 225.97 182.112 225.687 181.43 225.405C179.145 224.495 177.947 223.841 176.635 223.187C176.552 222.961 176.493 222.707 176.407 222.479C176.007 221.23 175.638 220.036 175.267 218.96C173.868 214.643 172.813 211.888 172.813 211.888C172.813 211.888 172.643 210.442 172.5 208.028C173.47 205.841 174.44 203.91 175.126 202.862C177.121 199.85 189.103 182.418 184.367 172.679C183.875 171.664 183.199 170.75 182.371 169.981C181.833 169.452 181.228 168.994 180.572 168.619C178.949 167.624 172.55 168.75 168.898 170.312C175.518 164.035 186.766 162.855 188.82 162.998V162.94H196.207V162.938ZM192.947 262.451H174.584C175.136 260.659 175.68 258.82 176.188 256.975C177.823 251.128 179.176 245.192 179.632 240.367C180.568 240.706 181.486 241.019 182.403 241.331C185.712 242.492 188.734 243.604 191.01 244.428C191.216 246.29 191.439 248.16 191.658 250.012C191.857 251.772 192.061 253.522 192.241 255.245C192.512 257.708 192.755 260.123 192.947 262.451Z" fill="#3B82F6"/>
<path d="M205.567 162.002V178.952C205.482 178.981 205.366 178.952 205.279 178.952C203.371 178.924 201.371 178.698 199.605 178.1C199.576 178.1 199.519 178.074 199.491 178.074C196.922 177.192 194.837 175.602 194.182 172.763V172.734C195.179 167.369 195.98 163.963 196.207 162.939H196.607V162.4C196.607 162.06 196.637 161.747 196.637 161.434C196.664 160.412 196.664 159.447 196.692 158.509V157.318C197.519 158.339 198.348 159.193 199.203 159.845C199.491 160.101 199.775 160.299 200.058 160.47C200.288 160.64 200.516 160.779 200.743 160.895H200.771C202.169 161.691 203.543 162.031 204.909 162.031C205.138 162.031 205.365 162.031 205.567 162.002Z" fill="#F4C7B1"/>
<path d="M213.441 237.158C213.241 238.407 212.414 239.344 212.414 239.344C212.414 239.344 212.898 240.99 211.787 242.069C211.787 242.069 212.157 243.63 210.703 244.652C210.703 244.652 211.045 246.186 209.902 246.84C209.902 246.84 207.419 247.153 206.51 246.983C202.821 246.147 199.14 245.276 195.468 244.37L197.892 234.232V234.205C198.948 233.496 199.945 232.84 200.261 232.642C201.031 232.187 203.657 232.33 206.364 233.181C208.992 234.006 211.93 235.169 212.756 235.623C213.186 235.851 213.611 235.938 213.441 237.158Z" fill="#EEA886"/>
<path d="M198.207 232.898L197.891 234.205V234.232L195.467 244.37L195.096 245.932C195.096 245.932 193.525 245.336 191.012 244.426C188.731 243.603 185.709 242.497 182.399 241.333C181.486 241.019 180.571 240.707 179.633 240.368C173.155 238.151 166.306 235.852 162.597 235C154.522 233.125 149.156 230.117 146.532 227.591C143.938 225.064 152.724 203.996 155.323 199.396C157.891 194.796 160.912 184.745 164.595 175.916C166.163 172.166 168.758 169.981 171.47 168.846C175.124 167.284 178.947 167.624 180.57 168.618C181.226 168.993 181.831 169.451 182.37 169.98C183.197 170.749 183.874 171.664 184.365 172.678C189.101 182.417 177.12 199.849 175.124 202.861C174.439 203.909 173.468 205.841 172.498 208.028C170.159 213.079 167.648 219.468 167.648 219.468C172.868 221.316 174.836 222.279 176.634 223.187C177.945 223.84 179.143 224.494 181.429 225.404C182.11 225.686 182.855 225.969 183.624 226.31C185.393 227.05 187.391 227.929 189.304 228.782C192.282 230.13 195.25 231.502 198.207 232.898Z" fill="#3B82F6"/>
<path d="M225.09 136.771L224.844 125.645C224.808 123.789 224.844 121.95 224.578 120.229C224.315 118.482 223.839 116.773 223.101 115.19C221.651 112.018 219.217 109.34 216.162 107.642C213.109 105.917 209.559 105.133 206.018 105.148C202.478 105.133 198.92 105.917 195.88 107.642C192.818 109.34 190.386 112.018 188.931 115.19C188.198 116.772 187.722 118.482 187.458 120.229C187.193 121.968 187.219 123.765 187.194 125.645L186.944 136.771H185.543L185.303 125.645C185.281 123.821 185.197 121.9 185.444 119.96C185.687 118.038 186.161 116.121 186.945 114.318C188.462 110.681 191.297 107.598 194.728 105.648C198.163 103.668 202.128 102.776 206.019 102.756C209.912 102.776 213.874 103.668 217.308 105.648C220.74 107.598 223.572 110.681 225.086 114.318C225.869 116.121 226.349 118.038 226.597 119.96C226.841 121.915 226.76 123.802 226.739 125.645L226.496 136.771H225.09Z" fill="#0E538C"/>
<path d="M186.663 142.812C184.147 142.812 183.512 141.017 183.512 138.8V131.606C183.512 129.392 184.147 127.593 186.663 127.593H187.264V142.812H186.663Z" fill="#0B4870"/>
<path d="M187.264 127.593H188.564V142.812H187.264V127.593Z" fill="#3B82F6"/>
<path d="M225.756 142.812C228.274 142.812 228.913 141.017 228.913 138.8V131.606C228.913 129.392 228.274 127.593 225.756 127.593H225.155V142.812H225.756Z" fill="#0B4870"/>
<path d="M223.854 127.593H225.155V142.812H223.854V127.593Z" fill="#3B82F6"/>
<path d="M206.951 156.68V155.284C212.754 155.284 223.807 147.077 223.807 142.812H225.206C225.206 148.212 212.98 156.68 206.951 156.68Z" fill="#5793FF"/>
<path d="M207.883 157.932H206.014C204.464 157.932 203.209 157.062 203.209 155.982C203.209 154.906 204.464 154.037 206.014 154.037H207.883C209.431 154.037 210.687 154.907 210.687 155.982C210.686 157.062 209.431 157.932 207.883 157.932Z" fill="#0B4870"/>
<path d="M156.908 81.464V92.4882L156.842 107.453L156.753 125.529L156.697 138.863L143.347 125.478L139.274 125.463L85.2569 125.212C76.1309 123.44 69.2441 115.448 69.2441 105.865V81.464C69.2441 71.3417 76.9353 62.9816 86.8144 61.881L140.959 62.1293C150.049 63.9146 156.908 71.8916 156.908 81.464Z" fill="white"/>
<path opacity="0.8" d="M140.069 81.9932C140.069 82.3733 139.994 82.7498 139.848 83.1011C139.703 83.4524 139.489 83.7717 139.219 84.0407C138.949 84.3097 138.628 84.5232 138.276 84.669C137.923 84.8148 137.545 84.8899 137.163 84.8903H87.3703C86.9881 84.8903 86.6096 84.8153 86.2565 84.6697C85.9034 84.5241 85.5825 84.3107 85.3123 84.0416C85.0421 83.7726 84.8278 83.4532 84.6817 83.1017C84.5356 82.7502 84.4605 82.3735 84.4607 81.9932C84.4607 81.613 84.536 81.2365 84.6822 80.8852C84.8284 80.534 85.0428 80.2148 85.313 79.946C85.5832 79.6772 85.9039 79.464 86.2569 79.3186C86.6099 79.1731 86.9883 79.0983 87.3703 79.0984H137.163C138.767 79.0984 140.069 80.3938 140.069 81.9932ZM140.069 92.7739C140.069 93.5414 139.762 94.2774 139.218 94.8206C138.673 95.3638 137.934 95.6699 137.163 95.6718H87.3703C86.5987 95.6703 85.8591 95.3644 85.3137 94.8212C84.7683 94.278 84.4615 93.5418 84.4607 92.7739C84.4606 92.3935 84.5358 92.0169 84.6819 91.6655C84.8281 91.314 85.0424 90.9947 85.3126 90.7257C85.5828 90.4566 85.9035 90.2432 86.2566 90.0976C86.6097 89.9519 86.9881 89.8769 87.3703 89.8768H137.163C137.545 89.8771 137.923 89.9523 138.276 90.098C138.628 90.2438 138.949 90.4573 139.219 90.7263C139.489 90.9953 139.703 91.3146 139.848 91.6659C139.994 92.0173 140.069 92.3937 140.069 92.7739ZM124.857 103.554C124.857 105.142 123.55 106.443 121.943 106.443H87.3671C86.5977 106.442 85.8601 106.137 85.3163 105.596C84.7725 105.054 84.4671 104.32 84.4671 103.554C84.4671 102.753 84.7839 102.033 85.3132 101.507C85.5818 101.237 85.9015 101.022 86.2541 100.875C86.6066 100.728 86.985 100.652 87.3671 100.652H121.943C122.716 100.653 123.457 100.959 124.003 101.503C124.55 102.047 124.857 102.785 124.857 103.554Z" fill="#5793FF"/>
</g>
<defs>
<clipPath id="clip0_68_217">
<rect width="401" height="336" fill="white" transform="translate(0.5 0.5)"/>
</clipPath>
</defs>
</svg>
