<svg width="50" height="51" viewBox="0 0 50 51" fill="none" xmlns="http://www.w3.org/2000/svg">
<rect x="1" y="1.80005" width="48" height="47.9" rx="23.95" stroke="#F4F3F3" stroke-width="2"/>
<path d="M15 34.75H23C23.2652 34.75 23.5196 34.6447 23.7071 34.4571C23.8946 34.2696 24 34.0153 24 33.75C24 33.4848 23.8946 33.2305 23.7071 33.0429C23.5196 32.8554 23.2652 32.75 23 32.75H16.071C16.3137 31.0849 17.1471 29.5625 18.4192 28.461C19.6914 27.3594 21.3172 26.7521 23 26.75C24.1775 26.7603 25.3214 26.3582 26.2336 25.6135C27.1457 24.8689 27.7686 23.8285 27.9943 22.6728C28.2199 21.5171 28.0341 20.3189 27.4691 19.2858C26.904 18.2527 25.9953 17.4499 24.9005 17.0164C23.8057 16.583 22.5937 16.5462 21.4746 16.9125C20.3555 17.2788 19.3998 18.0251 18.7732 19.0221C18.1466 20.019 17.8885 21.2038 18.0438 22.3711C18.199 23.5383 18.7576 24.6145 19.623 25.413C17.9632 26.0864 16.5418 27.2391 15.5402 28.7241C14.5386 30.2091 14.0024 31.9589 14 33.75C14 34.0153 14.1054 34.2696 14.2929 34.4571C14.4804 34.6447 14.7348 34.75 15 34.75ZM23 18.75C23.5933 18.75 24.1734 18.926 24.6667 19.2556C25.1601 19.5853 25.5446 20.0538 25.7716 20.602C25.9987 21.1502 26.0581 21.7534 25.9424 22.3353C25.8266 22.9173 25.5409 23.4518 25.1213 23.8714C24.7018 24.2909 24.1672 24.5766 23.5853 24.6924C23.0033 24.8082 22.4001 24.7487 21.8519 24.5217C21.3038 24.2946 20.8352 23.9101 20.5056 23.4168C20.1759 22.9234 20 22.3434 20 21.75C20 20.9544 20.3161 20.1913 20.8787 19.6287C21.4413 19.0661 22.2044 18.75 23 18.75ZM35.546 29.35H34.839C34.7459 29.3483 34.6555 29.3188 34.5792 29.2654C34.503 29.2119 34.4444 29.1369 34.411 29.05V29.044C34.3726 28.959 34.3605 28.8644 34.3764 28.7724C34.3922 28.6804 34.4353 28.5953 34.5 28.528L35 28.028C35.0423 27.9859 35.0759 27.9358 35.0988 27.8806C35.1217 27.8254 35.1334 27.7663 35.1334 27.7065C35.1334 27.6468 35.1217 27.5877 35.0988 27.5325C35.0759 27.4773 35.0423 27.4272 35 27.385L34.37 26.755C34.3278 26.7127 34.2777 26.6792 34.2225 26.6563C34.1674 26.6334 34.1082 26.6216 34.0485 26.6216C33.9888 26.6216 33.9296 26.6334 33.8745 26.6563C33.8193 26.6792 33.7692 26.7127 33.727 26.755L33.227 27.255C33.1597 27.3197 33.0746 27.3628 32.9826 27.3787C32.8907 27.3945 32.7961 27.3825 32.711 27.344H32.705C32.6181 27.3106 32.5431 27.2521 32.4897 27.1758C32.4362 27.0996 32.4068 27.0091 32.405 26.916V26.209C32.4057 26.1486 32.3943 26.0886 32.3714 26.0326C32.3486 25.9766 32.3148 25.9257 32.2721 25.883C32.2293 25.8402 32.1784 25.8064 32.1224 25.7836C32.0665 25.7608 32.0065 25.7494 31.946 25.75H31.054C30.9944 25.75 30.9353 25.7618 30.8803 25.7846C30.8252 25.8074 30.7751 25.8409 30.733 25.883C30.6908 25.9252 30.6574 25.9752 30.6346 26.0303C30.6117 26.0854 30.6 26.1444 30.6 26.204V26.911C30.5982 27.0041 30.5688 27.0946 30.5153 27.1708C30.4619 27.2471 30.3869 27.3056 30.3 27.339H30.294C30.2089 27.3775 30.1143 27.3895 30.0224 27.3737C29.9304 27.3578 29.8453 27.3147 29.778 27.25L29.278 26.75C29.2358 26.7077 29.1857 26.6742 29.1305 26.6513C29.0754 26.6284 29.0162 26.6166 28.9565 26.6166C28.8968 26.6166 28.8376 26.6284 28.7825 26.6513C28.7273 26.6742 28.6772 26.7077 28.635 26.75L28.005 27.38C27.9627 27.4222 27.9291 27.4723 27.9062 27.5275C27.8833 27.5827 27.8716 27.6418 27.8716 27.7015C27.8716 27.7613 27.8833 27.8204 27.9062 27.8756C27.9291 27.9308 27.9627 27.9809 28.005 28.023L28.505 28.523C28.5697 28.5903 28.6128 28.6754 28.6286 28.7674C28.6445 28.8594 28.6324 28.954 28.594 29.039V29.045C28.5606 29.1319 28.502 29.2069 28.4258 29.2604C28.3495 29.3138 28.2591 29.3433 28.166 29.345H27.459C27.3386 29.345 27.2231 29.3929 27.138 29.478C27.0528 29.5632 27.005 29.6786 27.005 29.799V30.691C27.005 30.8115 27.0528 30.9269 27.138 31.0121C27.2231 31.0972 27.3386 31.145 27.459 31.145H28.166C28.2591 31.1468 28.3495 31.1763 28.4258 31.2297C28.502 31.2832 28.5606 31.3581 28.594 31.445V31.451C28.6324 31.5361 28.6445 31.6307 28.6286 31.7227C28.6128 31.8147 28.5697 31.8998 28.505 31.967L28.005 32.467C27.9627 32.5092 27.9291 32.5593 27.9062 32.6145C27.8833 32.6697 27.8716 32.7288 27.8716 32.7885C27.8716 32.8483 27.8833 32.9074 27.9062 32.9626C27.9291 33.0178 27.9627 33.0679 28.005 33.11L28.635 33.74C28.6772 33.7823 28.7273 33.8159 28.7825 33.8388C28.8376 33.8617 28.8968 33.8735 28.9565 33.8735C29.0162 33.8735 29.0754 33.8617 29.1305 33.8388C29.1857 33.8159 29.2358 33.7823 29.278 33.74L29.778 33.24C29.8453 33.1753 29.9304 33.1323 30.0224 33.1164C30.1143 33.1006 30.2089 33.1126 30.294 33.151H30.3C30.3869 33.1844 30.4619 33.243 30.5153 33.3193C30.5688 33.3955 30.5982 33.486 30.6 33.579V34.286C30.6 34.3457 30.6117 34.4047 30.6346 34.4598C30.6574 34.5149 30.6908 34.5649 30.733 34.6071C30.7751 34.6492 30.8252 34.6827 30.8803 34.7055C30.9353 34.7283 30.9944 34.74 31.054 34.74H31.946C32.0056 34.74 32.0647 34.7283 32.1197 34.7055C32.1748 34.6827 32.2249 34.6492 32.267 34.6071C32.3092 34.5649 32.3426 34.5149 32.3654 34.4598C32.3883 34.4047 32.4 34.3457 32.4 34.286V33.579C32.4018 33.486 32.4312 33.3955 32.4847 33.3193C32.5381 33.243 32.6131 33.1844 32.7 33.151H32.706C32.7911 33.1126 32.8857 33.1006 32.9776 33.1164C33.0696 33.1323 33.1547 33.1753 33.222 33.24L33.722 33.74C33.7642 33.7823 33.8143 33.8159 33.8695 33.8388C33.9246 33.8617 33.9838 33.8735 34.0435 33.8735C34.1032 33.8735 34.1624 33.8617 34.2175 33.8388C34.2727 33.8159 34.3228 33.7823 34.365 33.74L34.995 33.11C35.0373 33.0679 35.0709 33.0178 35.0938 32.9626C35.1167 32.9074 35.1284 32.8483 35.1284 32.7885C35.1284 32.7288 35.1167 32.6697 35.0938 32.6145C35.0709 32.5593 35.0373 32.5092 34.995 32.467L34.495 31.967C34.4303 31.8998 34.3872 31.8147 34.3714 31.7227C34.3555 31.6307 34.3676 31.5361 34.406 31.451V31.445C34.4394 31.3581 34.498 31.2832 34.5742 31.2297C34.6505 31.1763 34.7409 31.1468 34.834 31.145H35.541C35.6006 31.1457 35.6598 31.1346 35.7151 31.1124C35.7705 31.0902 35.8209 31.0573 35.8635 31.0156C35.9061 30.9739 35.9401 30.9242 35.9635 30.8694C35.987 30.8146 35.9993 30.7557 36 30.696V29.804C36 29.6836 35.9522 29.5682 35.867 29.483C35.7819 29.3979 35.6664 29.35 35.546 29.35ZM31.5 31.6C31.233 31.6 30.972 31.5209 30.75 31.3725C30.528 31.2242 30.3549 31.0133 30.2528 30.7667C30.1506 30.52 30.1238 30.2485 30.1759 29.9867C30.228 29.7248 30.3566 29.4842 30.5454 29.2954C30.7342 29.1066 30.9748 28.9781 31.2366 28.926C31.4985 28.8739 31.7699 28.9006 32.0166 29.0028C32.2633 29.105 32.4741 29.278 32.6225 29.5C32.7708 29.722 32.85 29.983 32.85 30.25C32.8501 30.4274 32.8153 30.603 32.7475 30.7668C32.6797 30.9307 32.5803 31.0795 32.4549 31.2049C32.3295 31.3303 32.1806 31.4297 32.0168 31.4975C31.8529 31.5653 31.6773 31.6002 31.5 31.6Z" fill="#3B82F6"/>
</svg>
